<?xml version="1.0" encoding="UTF-8"?><svg id="_イヤー_2" xmlns="http://www.w3.org/2000/svg" viewBox="0 0 180.91 25"><defs><style>.cls-1{fill:#d5eebb;}.cls-2{fill:#7fc8a9;}</style></defs><g id="_イヤー_1-2"><path class="cls-2" d="M0,14.98v-4.87L16.66,.09V5.7l-7.24,3.92-5.03,2.81v.23l5.03,2.81,7.24,3.92v5.61L0,14.98Z"/><path class="cls-2" d="M180.91,10.11v4.87l-16.66,10.02v-5.61l7.24-3.92,5.03-2.81v-.23l-5.03-2.81-7.24-3.92V.09l16.66,10.02Z"/><path class="cls-1" d="M21.07,0h6.53c7.51,0,11.94,4.13,11.94,12.4s-4.43,12.6-11.72,12.6h-6.76V0Zm6.25,21.41c4.93,0,7.76-2.86,7.76-9.01s-2.83-8.81-7.76-8.81h-1.9V21.41h1.9Z"/><path class="cls-1" d="M41.9,15.17c0-6.1,4.15-9.86,8.48-9.86,4.97,0,7.6,3.67,7.6,8.91,0,.84-.09,1.68-.19,2.14h-11.68c.36,3.33,2.46,5.23,5.42,5.23,1.57,0,2.92-.5,4.27-1.36l1.47,2.74c-1.75,1.21-3.97,2.03-6.31,2.03-5.08,0-9.06-3.64-9.06-9.83Zm12.35-1.8c0-2.89-1.26-4.65-3.78-4.65-2.14,0-4.03,1.64-4.4,4.65h8.18Z"/><path class="cls-1" d="M59.82,6.22h4.37l2.92,9.74c.51,1.85,1.05,3.78,1.56,5.66h.15c.51-1.88,1.05-3.81,1.56-5.66l2.92-9.74h4.17l-6.25,18.78h-4.99l-6.41-18.78Z"/><path class="cls-2" d="M85.98,3.73h-7.07V0h18.49V3.73h-7.07V25h-4.34V3.73Z"/><path class="cls-2" d="M99.12,6.22h3.54l.33,3.35h.12c1.31-2.45,3.26-3.81,5.23-3.81,.94,0,1.53,.12,2.08,.38l-.75,3.82c-.65-.18-1.12-.31-1.89-.31-1.47,0-3.24,1.02-4.34,3.88v11.45h-4.32V6.22Z"/><path class="cls-2" d="M111.89,15.17c0-6.1,4.15-9.86,8.48-9.86,4.97,0,7.6,3.67,7.6,8.91,0,.84-.09,1.68-.19,2.14h-11.68c.36,3.33,2.46,5.23,5.42,5.23,1.57,0,2.92-.5,4.27-1.36l1.47,2.74c-1.75,1.21-3.97,2.03-6.31,2.03-5.08,0-9.06-3.64-9.06-9.83Zm12.35-1.8c0-2.89-1.26-4.65-3.78-4.65-2.14,0-4.03,1.64-4.4,4.65h8.18Z"/><path class="cls-2" d="M130.89,15.17c0-6.1,4.15-9.86,8.48-9.86,4.97,0,7.6,3.67,7.6,8.91,0,.84-.09,1.68-.19,2.14h-11.68c.36,3.33,2.46,5.23,5.42,5.23,1.57,0,2.92-.5,4.27-1.36l1.47,2.74c-1.75,1.21-3.97,2.03-6.31,2.03-5.08,0-9.06-3.64-9.06-9.83Zm12.35-1.8c0-2.89-1.26-4.65-3.78-4.65-2.14,0-4.03,1.64-4.4,4.65h8.18Z"/><polygon class="cls-2" points="154.91 25 150.91 25 156.91 0 160.91 0 154.91 25"/></g></svg>